<?xml version="1.0" standalone="no"?>
<!DOCTYPE svg PUBLIC "-//W3C//DTD SVG 20010904//EN"
 "http://www.w3.org/TR/2001/REC-SVG-20010904/DTD/svg10.dtd">
<svg version="1.0" xmlns="http://www.w3.org/2000/svg"
 width="512.000000pt" height="512.000000pt" viewBox="0 0 512.000000 512.000000"
 preserveAspectRatio="xMidYMid meet">
<metadata>
Created by potrace 1.14, written by Peter Selinger 2001-2017
</metadata>
<g transform="translate(0.000000,512.000000) scale(0.100000,-0.100000)"
fill="#000000" stroke="none">
<path d="M1297 4484 c-1 -1 -33 -5 -72 -9 -38 -4 -72 -8 -76 -10 -3 -2 -28 -7
-55 -10 -27 -4 -57 -8 -66 -11 -9 -3 -25 -6 -35 -8 -225 -45 -471 -139 -611
-235 -100 -68 -133 -107 -126 -151 8 -52 10 -186 3 -225 -4 -22 -10 -62 -14
-90 -3 -27 -8 -59 -10 -70 -16 -74 -29 -175 -28 -222 1 -38 -2 -43 -42 -68
-69 -44 -90 -119 -44 -157 18 -15 21 -31 24 -110 2 -51 6 -104 9 -118 3 -14 9
-92 12 -175 3 -82 7 -156 9 -162 3 -7 1 -13 -3 -13 -4 0 -20 -11 -36 -25 -24
-20 -29 -33 -28 -63 1 -20 2 -67 2 -105 0 -38 6 -79 14 -95 11 -22 13 -79 10
-302 -2 -151 -4 -290 -5 -308 -1 -27 -9 -38 -39 -57 -60 -38 -93 -83 -86 -119
3 -17 15 -37 26 -45 15 -10 20 -25 20 -60 0 -50 5 -60 35 -77 23 -13 22 0 10
-304 -12 -285 -11 -345 10 -376 35 -53 139 -69 175 -27 12 15 30 18 92 18 69
0 78 -3 103 -28 28 -28 46 -31 145 -27 49 2 109 26 117 46 3 9 17 12 41 8 21
-3 87 -6 147 -7 85 -3 116 -7 137 -21 22 -14 51 -18 163 -19 l137 -2 23 29
c22 27 26 28 100 27 43 -1 81 -3 85 -6 4 -2 55 -5 113 -6 82 -1 107 -4 107
-15 0 -23 39 -35 129 -41 81 -5 88 -4 116 19 29 23 34 24 185 21 85 -2 304 -4
486 -6 271 -2 334 -5 348 -16 12 -10 45 -15 101 -17 114 -2 158 6 169 32 9 20
20 22 160 28 209 10 228 9 246 -14 23 -30 67 -38 190 -34 85 3 121 9 140 21
19 13 52 18 140 19 63 2 129 5 147 9 25 4 34 2 42 -14 17 -31 82 -45 197 -42
20 1 41 11 59 28 25 25 34 28 104 28 61 0 79 -3 91 -18 21 -25 79 -32 122 -14
56 23 72 56 71 145 0 89 -12 410 -18 496 -4 55 -2 60 25 86 29 27 34 44 30
103 -1 19 3 27 14 27 16 0 36 37 36 65 0 20 -48 74 -90 100 -44 28 -39 -10
-44 365 -3 218 -1 281 10 302 8 15 14 58 14 100 0 40 1 88 2 106 1 22 -5 39
-21 53 -47 44 -264 129 -496 194 -84 24 -542 119 -616 128 -19 3 -63 8 -99 12
-36 4 -78 11 -95 15 -53 16 -122 22 -395 35 -74 4 -157 8 -185 10 -27 1 -111
6 -185 10 -166 10 -571 11 -662 2 -61 -6 -68 -5 -69 10 -3 64 -24 106 -78 151
-36 31 -52 53 -67 97 -19 58 -50 96 -95 118 -13 7 -32 28 -41 47 -21 43 -45
161 -52 256 -3 39 -11 84 -18 99 -12 26 -59 56 -108 68 -22 6 -28 17 -48 99
-12 51 -44 165 -70 253 -44 151 -49 163 -92 206 -50 50 -105 71 -178 67 -24
-2 -44 -3 -45 -4z m200 -971 c32 -35 75 -151 87 -233 12 -81 15 -140 6 -145
-22 -13 -173 -35 -181 -26 -6 5 -13 39 -35 161 -11 61 -6 143 11 210 9 36 19
68 21 72 10 16 62 -5 91 -39z m-609 -187 c8 -15 15 -53 18 -84 4 -63 14 -156
20 -185 5 -29 -5 -45 -37 -56 -27 -9 -29 -8 -39 27 -17 60 -25 284 -11 311 15
27 32 23 49 -13z m785 -638 c86 -60 91 -78 93 -345 1 -123 -1 -223 -4 -224 -4
0 -16 -3 -27 -5 -11 -3 -66 -8 -122 -11 -94 -5 -103 -4 -110 13 -4 11 -7 102
-7 204 0 213 13 277 71 348 39 48 61 52 106 20z m1875 -15 c45 -58 60 -93 70
-169 12 -88 8 -382 -6 -396 -15 -15 -152 -11 -231 7 l-30 6 3 222 c3 266 6
280 90 345 42 32 69 28 104 -15z m-1093 -83 c46 -22 69 -58 79 -120 17 -115
26 -254 18 -297 -5 -24 -37 -37 -50 -19 -9 12 -102 224 -158 361 -19 45 -29
82 -24 85 24 15 94 10 135 -10z m459 -78 c20 -39 24 -122 12 -269 -5 -66 -12
-103 -19 -104 -28 -3 -134 2 -160 7 l-28 6 2 141 c2 191 20 240 103 278 39 17
40 17 56 -4 10 -12 25 -37 34 -55z m-1919 -28 c17 -49 12 -408 -6 -430 -17
-20 -47 -17 -54 6 -11 36 -14 333 -3 390 18 101 36 111 63 34z m3188 -17 c12
-44 15 -100 12 -222 -4 -208 -10 -228 -59 -192 -15 11 -18 35 -20 209 -3 176
-1 201 16 239 22 51 31 45 51 -34z m-2508 -898 c36 -68 58 -240 57 -430 -1
-158 -9 -189 -49 -190 -76 -2 -150 5 -162 16 -10 11 -11 418 -1 465 6 25 26
77 45 117 35 72 36 72 66 61 16 -5 36 -23 44 -39z m1910 -84 c17 -43 19 -81
20 -283 1 -135 -3 -235 -8 -239 -23 -14 -175 -19 -188 -6 -17 17 -22 63 -21
200 0 121 5 204 17 264 3 13 8 40 11 59 13 69 36 112 68 125 30 13 31 13 57
-28 14 -23 34 -64 44 -92z m-1194 81 c26 -43 33 -101 31 -251 -3 -235 -10
-327 -24 -336 -22 -14 -164 -11 -166 4 -1 6 -4 80 -6 162 -5 167 4 254 35 335
11 30 25 69 31 87 17 51 67 51 99 -1z m-1393 -150 c9 -59 13 -414 5 -446 -7
-25 -64 -34 -80 -12 -7 9 -12 34 -12 56 1 23 0 93 0 156 -2 130 0 144 36 253
29 87 37 86 51 -7z m3194 -56 c16 -57 21 -100 19 -180 -1 -90 -5 -181 -10
-228 -1 -14 -57 -8 -78 9 -17 14 -12 435 6 499 l13 44 15 -34 c8 -19 24 -69
35 -110z"/>
</g>
</svg>
